<svg xmlns="http://www.w3.org/2000/svg" width="16" height="16" viewBox="0 0 16 16"><g><g><path fill="#fff" d="M6.5 12.594C2.915 12.594 0 9.77 0 6.297c0-3.473 2.916-6.298 6.501-6.298 3.586 0 6.503 2.825 6.503 6.298a6.156 6.156 0 0 1-1.56 4.088l4.554 4.011-1.508 1.607-4.794-4.222a6.626 6.626 0 0 1-3.195.813zM6.5.577C3.244.577.595 3.143.595 6.297s2.65 5.72 5.905 5.72c3.257 0 5.906-2.566 5.906-5.72S9.757.577 6.5.577zm.795 9.173h-1.59V7.066h-2.77V5.527h2.77V2.843h1.59v2.684h2.77v1.54h-2.77z"/></g></g></svg>